<?xml version="1.0" standalone="no"?>
<!DOCTYPE svg PUBLIC "-//W3C//DTD SVG 20010904//EN"
 "http://www.w3.org/TR/2001/REC-SVG-20010904/DTD/svg10.dtd">
<svg version="1.0" xmlns="http://www.w3.org/2000/svg"
 width="512.000000pt" height="512.000000pt" viewBox="0 0 512.000000 512.000000"
 preserveAspectRatio="xMidYMid meet">
<metadata>
Created by potrace 1.14, written by Peter Selinger 2001-2017
</metadata>
<g transform="translate(0.000000,512.000000) scale(0.100000,-0.100000)"
fill="#000000" stroke="none">
<path d="M1755 5101 c-92 -27 -144 -58 -211 -126 -73 -74 -110 -144 -131 -244
-17 -78 0 -207 36 -281 l17 -35 -83 -230 c-45 -127 -93 -261 -107 -300 -14
-38 -52 -146 -86 -240 -34 -93 -83 -231 -110 -305 -114 -321 -241 -676 -247
-690 -3 -8 -7 -19 -9 -25 -5 -18 -155 -440 -164 -460 -8 -18 -165 -455 -225
-625 -35 -101 -99 -279 -266 -740 -147 -406 -154 -428 -154 -500 0 -88 22
-142 84 -206 58 -61 121 -87 211 -88 79 -1 68 -4 405 119 50 18 122 44 160 58
39 14 120 43 180 65 61 22 157 57 215 77 58 20 114 40 125 45 11 4 92 33 180
64 215 76 293 107 306 122 5 7 11 24 13 39 4 35 8 38 103 70 l82 28 18 -22
c11 -14 30 -22 48 -23 17 0 111 29 210 65 99 36 371 134 605 217 385 137 494
177 555 200 11 5 67 25 125 45 58 20 114 41 125 45 11 5 164 60 339 122 l319
114 66 -23 c177 -60 389 0 506 144 112 137 143 310 84 469 -65 174 -377 690
-608 1004 -72 98 -259 333 -296 374 -6 6 -42 47 -80 91 -113 131 -364 386
-512 521 -77 71 -102 93 -163 144 -36 30 -74 63 -85 73 -96 87 -465 355 -670
487 -255 164 -597 351 -670 366 -71 14 -181 12 -240 -5z"/>
</g>
</svg>
