<?xml version="1.0" encoding="UTF-8"?>
<svg xmlns="http://www.w3.org/2000/svg" xmlns:xlink="http://www.w3.org/1999/xlink" width="14pt" height="13pt" viewBox="0 0 14 13" version="1.1">
<g id="surface1">
<path style=" stroke:none;fill-rule:nonzero;fill:rgb(20%,62.745098%,100%);fill-opacity:1;" d="M 7.011719 1.21875 C 3.3125 1.21875 0.3125 4.246094 0.3125 7.984375 C 0.3125 9.273438 0.671875 10.476562 1.292969 11.503906 L 3.039062 9.625 L 11.894531 9.683594 L 11.832031 12.675781 C 12.992188 11.460938 13.707031 9.804688 13.707031 7.984375 C 13.707031 4.246094 10.707031 1.21875 7.011719 1.21875 "/>
<path style=" stroke:none;fill-rule:nonzero;fill:rgb(23.921569%,80%,55.686275%);fill-opacity:1;" d="M 3.984375 3.144531 C 3.65625 3.125 3.40625 2.839844 3.425781 2.511719 L 3.46875 1.789062 C 3.488281 1.472656 3.75 1.222656 4.0625 1.222656 C 4.074219 1.222656 4.085938 1.226562 4.097656 1.226562 L 4.816406 1.269531 C 4.972656 1.28125 5.117188 1.351562 5.222656 1.472656 C 5.328125 1.59375 5.382812 1.746094 5.371094 1.90625 L 5.328125 2.628906 C 5.324219 2.667969 5.316406 2.703125 5.3125 2.71875 L 5.285156 2.847656 L 4.816406 3.199219 Z M 3.984375 3.144531 "/>
<path style=" stroke:none;fill-rule:nonzero;fill:rgb(15.686275%,15.686275%,15.686275%);fill-opacity:1;" d="M 4.0625 0.863281 C 3.5625 0.863281 3.144531 1.257812 3.113281 1.765625 L 3.066406 2.488281 C 3.035156 3.019531 3.4375 3.476562 3.960938 3.507812 L 4.664062 3.550781 L 4.925781 3.570312 L 5.132812 3.410156 L 5.390625 3.222656 L 5.609375 3.054688 L 5.660156 2.804688 C 5.671875 2.765625 5.683594 2.714844 5.6875 2.652344 L 5.730469 1.929688 C 5.746094 1.671875 5.660156 1.425781 5.492188 1.230469 C 5.324219 1.039062 5.089844 0.921875 4.835938 0.90625 L 4.121094 0.863281 C 4.101562 0.863281 4.082031 0.863281 4.0625 0.863281 M 4.597656 2.4375 L 4.625 2.007812 L 4.199219 1.980469 L 4.171875 2.410156 L 4.597656 2.4375 M 4.0625 1.585938 C 4.070312 1.585938 4.074219 1.585938 4.078125 1.589844 L 4.792969 1.632812 C 4.855469 1.636719 4.914062 1.664062 4.953125 1.710938 C 4.996094 1.761719 5.015625 1.820312 5.011719 1.886719 L 4.96875 2.605469 C 4.96875 2.617188 4.964844 2.625 4.960938 2.636719 L 4.707031 2.828125 L 4.003906 2.785156 C 3.875 2.777344 3.777344 2.664062 3.785156 2.53125 L 3.828125 1.8125 C 3.835938 1.683594 3.941406 1.585938 4.0625 1.585938 "/>
<path style=" stroke:none;fill-rule:nonzero;fill:rgb(100%,100%,100%);fill-opacity:1;" d="M 7.011719 4.722656 C 4.214844 4.722656 1.949219 7.015625 1.949219 9.839844 C 1.949219 10.886719 2.261719 11.863281 2.800781 12.675781 L 11.425781 12.675781 C 11.878906 11.839844 12.074219 10.847656 12.074219 9.839844 C 12.074219 7.222656 9.804688 4.722656 7.011719 4.722656 "/>
<path style=" stroke:none;fill-rule:nonzero;fill:rgb(15.686275%,15.686275%,15.294118%);fill-opacity:1;" d="M 7.011719 4.363281 C 4.019531 4.363281 1.589844 6.816406 1.589844 9.839844 C 1.589844 10.875 1.875 11.847656 2.375 12.675781 L 3.242188 12.675781 C 2.65625 11.882812 2.308594 10.902344 2.308594 9.839844 C 2.308594 7.21875 4.417969 5.085938 7.011719 5.085938 C 8.242188 5.085938 9.421875 5.609375 10.332031 6.554688 C 11.210938 7.464844 11.714844 8.664062 11.714844 9.839844 C 11.714844 10.644531 11.582031 11.738281 11.011719 12.675781 L 11.832031 12.675781 C 12.226562 11.871094 12.433594 10.910156 12.433594 9.839844 C 12.433594 8.476562 11.855469 7.09375 10.847656 6.046875 C 9.800781 4.960938 8.4375 4.363281 7.011719 4.363281 "/>
<path style=" stroke:none;fill-rule:nonzero;fill:rgb(15.686275%,15.686275%,15.294118%);fill-opacity:1;" d="M 5.988281 11.324219 C 5.988281 11.59375 5.769531 11.8125 5.503906 11.8125 C 5.234375 11.8125 5.015625 11.59375 5.015625 11.324219 C 5.015625 11.050781 5.234375 10.832031 5.503906 10.832031 C 5.769531 10.832031 5.988281 11.050781 5.988281 11.324219 "/>
<path style=" stroke:none;fill-rule:nonzero;fill:rgb(15.686275%,15.686275%,15.294118%);fill-opacity:1;" d="M 9.003906 11.324219 C 9.003906 11.59375 8.785156 11.8125 8.519531 11.8125 C 8.25 11.8125 8.03125 11.59375 8.03125 11.324219 C 8.03125 11.050781 8.25 10.832031 8.519531 10.832031 C 8.785156 10.832031 9.003906 11.050781 9.003906 11.324219 "/>
<path style=" stroke:none;fill-rule:nonzero;fill:rgb(100%,43.529412%,12.941176%);fill-opacity:1;" d="M 1.488281 11.128906 L 4.183594 8.238281 L 3.535156 10.292969 C 5.640625 8.746094 7.851562 8.992188 9.410156 9.453125 C 11.0625 9.941406 12.21875 8.46875 11.085938 6.894531 C 10.546875 6.148438 9.808594 5.527344 8.972656 5.152344 C 6.773438 4.164062 4.5625 4.738281 3.070312 6.261719 C 1.488281 7.875 1.488281 9.664062 1.488281 11.128906 "/>
<path style=" stroke:none;fill-rule:nonzero;fill:rgb(15.686275%,15.686275%,15.294118%);fill-opacity:1;" d="M 6.757812 5.027344 C 6.445312 5.027344 6.132812 5.058594 5.828125 5.121094 C 4.894531 5.316406 4.03125 5.796875 3.324219 6.515625 C 2.152344 7.710938 1.910156 8.996094 1.859375 10.199219 L 5.007812 6.828125 L 4.171875 9.464844 C 5.738281 8.640625 7.53125 8.515625 9.511719 9.105469 C 10.140625 9.292969 10.710938 9.148438 11 8.734375 C 11.296875 8.308594 11.222656 7.699219 10.796875 7.109375 C 10.285156 6.402344 9.585938 5.824219 8.824219 5.484375 C 8.148438 5.179688 7.449219 5.027344 6.757812 5.027344 M 1.128906 12.042969 L 1.128906 11.128906 C 1.128906 9.613281 1.128906 7.726562 2.8125 6.007812 C 3.617188 5.183594 4.609375 4.632812 5.683594 4.410156 C 6.808594 4.175781 7.996094 4.316406 9.117188 4.820312 C 9.992188 5.210938 10.792969 5.875 11.375 6.683594 C 11.984375 7.523438 12.0625 8.472656 11.589844 9.152344 C 11.125 9.820312 10.230469 10.074219 9.308594 9.800781 C 7.183594 9.171875 5.3125 9.4375 3.746094 10.585938 L 2.859375 11.238281 L 3.363281 9.648438 Z M 1.128906 12.042969 "/>
<path style=" stroke:none;fill-rule:nonzero;fill:rgb(100%,43.529412%,12.941176%);fill-opacity:1;" d="M 8.304688 4.453125 C 7.984375 5.292969 7.054688 5.765625 6.195312 5.519531 C 5.226562 5.242188 4.71875 4.457031 4.839844 3.460938 C 4.960938 2.46875 5.625 1.601562 6.390625 0.527344 C 5.761719 1.878906 6.292969 2.007812 6.464844 2 C 6.628906 1.992188 6.875 2.019531 7.21875 2.136719 C 8.164062 2.453125 8.664062 3.503906 8.304688 4.453125 "/>
<path style=" stroke:none;fill-rule:nonzero;fill:rgb(15.686275%,15.686275%,15.294118%);fill-opacity:1;" d="M 5.824219 1.976562 C 5.492188 2.5 5.257812 2.988281 5.195312 3.507812 C 5.09375 4.324219 5.503906 4.945312 6.292969 5.171875 C 6.976562 5.363281 7.710938 4.992188 7.96875 4.320312 C 8.105469 3.957031 8.089844 3.566406 7.925781 3.214844 C 7.761719 2.863281 7.472656 2.605469 7.105469 2.480469 C 6.789062 2.375 6.589844 2.359375 6.476562 2.363281 C 6.230469 2.371094 6 2.253906 5.867188 2.050781 C 5.851562 2.027344 5.835938 2 5.824219 1.976562 M 6.660156 5.945312 C 6.472656 5.945312 6.285156 5.921875 6.097656 5.867188 C 5.539062 5.710938 5.09375 5.394531 4.808594 4.960938 C 4.523438 4.527344 4.410156 3.992188 4.484375 3.417969 C 4.609375 2.398438 5.230469 1.527344 5.949219 0.523438 C 6 0.453125 6.046875 0.386719 6.097656 0.316406 L 6.714844 0.683594 C 6.410156 1.339844 6.445312 1.582031 6.460938 1.636719 C 6.707031 1.628906 7 1.679688 7.332031 1.792969 C 7.886719 1.976562 8.328125 2.371094 8.578125 2.90625 C 8.824219 3.4375 8.847656 4.03125 8.636719 4.582031 C 8.320312 5.417969 7.511719 5.945312 6.660156 5.945312 "/>
<path style=" stroke:none;fill-rule:nonzero;fill:rgb(23.921569%,80%,55.686275%);fill-opacity:1;" d="M 7.394531 7.667969 C 7.269531 7.667969 7.152344 7.609375 7.070312 7.511719 L 6.828125 7.214844 C 6.691406 7.039062 6.710938 6.785156 6.871094 6.636719 C 6.820312 6.609375 6.773438 6.574219 6.734375 6.527344 L 6.679688 6.457031 C 6.535156 6.277344 6.5625 6.015625 6.738281 5.867188 L 6.773438 5.839844 L 6.417969 5.398438 C 6.261719 5.203125 6.289062 4.917969 6.484375 4.757812 C 6.566406 4.691406 6.667969 4.652344 6.769531 4.652344 C 6.90625 4.652344 7.035156 4.714844 7.121094 4.820312 L 8.628906 6.699219 C 8.789062 6.894531 8.757812 7.183594 8.566406 7.339844 C 8.511719 7.386719 8.449219 7.417969 8.382812 7.433594 C 8.347656 7.441406 8.3125 7.445312 8.28125 7.445312 C 8.160156 7.445312 8.050781 7.398438 7.964844 7.316406 L 7.660156 7.570312 C 7.585938 7.632812 7.492188 7.667969 7.394531 7.667969 "/>
<path style=" stroke:none;fill-rule:nonzero;fill:rgb(15.686275%,15.686275%,15.686275%);fill-opacity:1;" d="M 7.347656 4.632812 C 7.203125 4.457031 6.996094 4.355469 6.769531 4.355469 C 6.597656 4.355469 6.429688 4.417969 6.296875 4.527344 C 5.980469 4.789062 5.929688 5.265625 6.191406 5.585938 L 6.386719 5.832031 C 6.242188 6.082031 6.257812 6.410156 6.453125 6.644531 L 6.488281 6.691406 C 6.402344 6.925781 6.4375 7.195312 6.601562 7.402344 L 6.84375 7.699219 C 6.980469 7.867188 7.179688 7.964844 7.394531 7.964844 C 7.558594 7.964844 7.71875 7.90625 7.84375 7.800781 L 7.988281 7.683594 C 8.078125 7.722656 8.179688 7.742188 8.28125 7.742188 C 8.335938 7.742188 8.390625 7.734375 8.449219 7.722656 C 8.558594 7.695312 8.664062 7.644531 8.75 7.570312 C 9.070312 7.308594 9.117188 6.832031 8.859375 6.511719 L 7.347656 4.636719 Z M 6.769531 4.953125 C 6.816406 4.953125 6.859375 4.972656 6.890625 5.011719 L 8.402344 6.886719 C 8.457031 6.957031 8.445312 7.054688 8.378906 7.113281 C 8.359375 7.128906 8.335938 7.136719 8.316406 7.144531 C 8.304688 7.144531 8.292969 7.148438 8.28125 7.148438 C 8.234375 7.148438 8.1875 7.128906 8.15625 7.089844 L 8.007812 6.902344 L 7.472656 7.34375 C 7.449219 7.359375 7.421875 7.371094 7.394531 7.371094 C 7.359375 7.371094 7.324219 7.355469 7.300781 7.324219 L 7.058594 7.023438 C 7.015625 6.972656 7.023438 6.894531 7.074219 6.851562 L 7.609375 6.410156 L 7.390625 6.136719 L 7.125 6.355469 C 7.105469 6.375 7.078125 6.382812 7.054688 6.382812 C 7.019531 6.382812 6.984375 6.367188 6.960938 6.339844 L 6.90625 6.269531 C 6.863281 6.21875 6.871094 6.140625 6.925781 6.097656 L 7.1875 5.882812 L 6.648438 5.210938 C 6.59375 5.144531 6.601562 5.042969 6.667969 4.988281 C 6.699219 4.964844 6.734375 4.953125 6.769531 4.953125 "/>
</g>
</svg>
